<?xml version="1.0" standalone="no"?><!DOCTYPE svg PUBLIC "-//W3C//DTD SVG 1.1//EN" "http://www.w3.org/Graphics/SVG/1.1/DTD/svg11.dtd"><svg t="1728562915561" class="icon" viewBox="0 0 1024 1024" version="1.1" xmlns="http://www.w3.org/2000/svg" p-id="5799" xmlns:xlink="http://www.w3.org/1999/xlink" width="200" height="200"><path d="M64 160a32 32 0 0 1 32-32h256a32 32 0 0 1 28.608 17.664L435.84 256H928a32 32 0 0 1 32 32v576a32 32 0 0 1-32 32h-832a32 32 0 0 1-32-32v-704zM128 192v640h768V320H416a32 32 0 0 1-28.608-17.664L332.16 192H128z" fill="#3F85FF" p-id="5800"></path><path d="M928 448h-832V384h832v64zM96 256h320a32 32 0 0 1 28.608 17.664l32 64A32 32 0 0 1 448 384H96V256z" fill="#3F85FF" p-id="5801"></path></svg>