<?xml version="1.0" standalone="no"?><!DOCTYPE svg PUBLIC "-//W3C//DTD SVG 1.1//EN" "http://www.w3.org/Graphics/SVG/1.1/DTD/svg11.dtd"><svg t="1728475599360" class="icon" viewBox="0 0 1024 1024" version="1.1" xmlns="http://www.w3.org/2000/svg" p-id="3493" xmlns:xlink="http://www.w3.org/1999/xlink" width="200" height="200"><path d="M117.759954 838.655862c23.551991-6.399998 43.365983-21.862991 55.499978-42.393983a442.213827 442.213827 0 0 0 780.389695-262.040898L1023.9996 511.99999c0 282.77689-229.22291 511.9998-511.9998 511.9998a510.9758 510.9758 0 0 1-394.239846-185.343928A93.183964 93.183964 0 0 1 0 748.952897a93.081964 93.081964 0 1 1 173.259932 47.359982 442.213827 442.213827 0 0 0 780.389695-262.040898L1023.9996 511.99999c0 282.77689-229.22291 511.9998-511.9998 511.9998a510.9758 510.9758 0 0 1-394.239846-185.343928zM70.449972 488.139999A442.213827 442.213827 0 0 1 848.179669 224.768102l70.501972-23.85999A511.1798 511.1798 0 0 0 511.9998 0.00019C229.22191 0.00019 0 229.2221 0 511.99999l70.450972-23.859991zM511.9998 69.837163a441.036828 441.036828 0 0 1 336.229869 154.929939l70.450972-23.85799A511.1798 511.1798 0 0 0 511.9998 0.00019C229.22191 0.00019 0 229.2221 0 511.99999l70.450972-23.859991A442.213827 442.213827 0 0 1 511.9998 69.838163z m15.256994 502.629803l-249.752902 144.229944-43.007984-74.444971 49.919981-28.773989-43.007983-74.444971 80.383968-46.386981 42.956984 74.44497L484.299811 498.072995c-10.598996-56.216978 13.362995-119.397953 65.842974-149.656941 66.507974-38.399985 151.192941-14.745994 189.592926 51.76298 38.399985 66.559974 18.841993 150.373941-47.615981 188.773926-52.47998 30.259988-121.343953 20.735992-164.863936-16.485994z m68.812973-142.847944a46.437982 46.437982 0 0 0-16.895993 63.282975c12.697995 22.118991 41.164984 29.695988 63.231975 16.946994a46.437982 46.437982 0 0 0 16.946993-63.282975 46.437982 46.437982 0 0 0-63.282975-16.895994z" fill="#5D78FF" p-id="3494"></path><path d="M870.39966 307.20007a102.39996 102.39996 0 1 1 0-204.79992 102.39996 102.39996 0 0 1 0 204.79992z" fill="#5D78FF" p-id="3495"></path></svg>