<?xml version="1.0" standalone="no"?><!DOCTYPE svg PUBLIC "-//W3C//DTD SVG 1.1//EN" "http://www.w3.org/Graphics/SVG/1.1/DTD/svg11.dtd"><svg t="1728548900518" class="icon" viewBox="0 0 1024 1024" version="1.1" xmlns="http://www.w3.org/2000/svg" p-id="5093" xmlns:xlink="http://www.w3.org/1999/xlink" width="200" height="200"><path d="M884.571429 603.465143c-65.642057 0-118.785829 53.178514-118.785829 118.893714 0 65.607314 53.141943 118.749257 118.785829 118.749257 65.678629 0 118.928457-53.141943 118.928457-118.749257C1003.499886 656.643657 950.250057 603.465143 884.571429 603.465143z" fill="#F69661" p-id="5094"></path><path d="M512 237.714286c65.7152 0 118.857143-53.141943 118.857143-118.785829C630.857143 53.141943 577.7152 0 512 0s-118.857143 53.141943-118.857143 118.928457C393.142857 184.572343 446.286629 237.714286 512 237.714286z" fill="#F69661" p-id="5095"></path><path d="M908.964571 532.821943c26.7136 3.428571 51.536457 12.035657 73.642057 25.250743 0.036571-1.678629 0.250514-3.285943 0.250514-4.964571 0-191.356343-114.964114-356.106971-279.3216-429.677714-0.607086 26.071771-6.250057 50.784914-16.250514 73.250743C813.072457 258.784914 901.500343 385.179429 908.964571 532.821943z" fill="#F69661" p-id="5096"></path><path d="M258.179657 722.357029c0-65.7152-53.321143-118.928457-118.857143-118.928457-65.749943 0-118.857143 53.215086-118.857143 118.928457 0 65.607314 53.1072 118.785829 118.857143 118.785829C204.856686 841.142857 258.179657 787.964343 258.179657 722.357029z" fill="#F69661" p-id="5097"></path><path d="M114.964114 532.750629c7.535543-147.642514 95.928686-274.000457 221.714286-336.107886-9.963886-22.464-15.606857-47.178971-16.250514-73.250743-164.357486 73.536-279.356343 238.321371-279.356343 429.714286 0 1.642057 0.213943 3.214629 0.250514 4.856686C63.392914 544.786286 88.250514 536.142629 114.964114 532.750629z" fill="#F69661" p-id="5098"></path><path d="M511.965257 950.857143c-92.750629 0-177.963886-32.142629-245.677714-85.571657-19.392 17.214171-42.177829 30.321371-67.357257 38.606629C282.2144 978.322286 391.714743 1024 511.965257 1024s229.750857-45.677714 313.071543-120.142629c-25.214171-8.250514-48-21.321143-67.392-38.571886C689.929143 918.714514 604.714057 950.857143 511.965257 950.857143z" fill="#F69661" p-id="5099"></path></svg>